<svg width="21" height="21" viewBox="0 0 21 21" fill="none" xmlns="http://www.w3.org/2000/svg">
<path fill-rule="evenodd" clip-rule="evenodd" d="M8.502 0.249756C3.9456 0.249756 0.251953 3.94341 0.251953 8.4998C0.251953 13.0561 3.9456 16.7498 8.502 16.7498C10.5098 16.7498 12.351 16.0317 13.7812 14.8397L18.9413 19.9998C19.2342 20.2927 19.7091 20.2927 20.002 19.9998C20.2948 19.7069 20.2948 19.232 20.002 18.9391L14.8419 13.779C16.0339 12.3488 16.752 10.5076 16.752 8.4998C16.752 3.94341 13.0583 0.249756 8.502 0.249756ZM1.75195 8.4998C1.75195 4.77183 4.77403 1.74976 8.502 1.74976C12.2299 1.74976 15.252 4.77183 15.252 8.4998C15.252 10.3639 14.4973 12.0504 13.2749 13.2727C12.0526 14.4951 10.3661 15.2498 8.502 15.2498C4.77403 15.2498 1.75195 12.2277 1.75195 8.4998Z" fill="black"/>
</svg>
