<svg width="20" height="20" viewBox="0 0 20 20" fill="none" xmlns="http://www.w3.org/2000/svg">
<path fill-rule="evenodd" clip-rule="evenodd" d="M18.6716 10.4857C19.1118 10.1222 19.9647 10.4293 19.9506 11C19.4489 16.0533 15.1853 20 10 20C4.47715 20 0 15.5229 0 10C0 4.81466 3.94668 0.551112 9 0.049382C9.5707 0.035292 9.8778 0.888202 9.5143 1.32843C8.5752 2.4658 8 3.9286 8 5.50001C8 9.0899 10.9102 12 14.5 12C16.0714 12 17.5342 11.4248 18.6716 10.4857ZM1.5 10C1.5 6.23128 3.95359 3.03424 7.3499 1.92094C6.8095 3.00066 6.5 4.21879 6.5 5.50001C6.5 9.9183 10.0817 13.5 14.5 13.5C15.7812 13.5 16.9993 13.1905 18.0791 12.6501C16.9658 16.0464 13.7687 18.5 10 18.5C5.30558 18.5 1.5 14.6944 1.5 10Z" fill="#828282"/>
</svg>
